<mxfile host="app.diagrams.net" agent="Mozilla/5.0 (Windows NT 10.0; Win64; x64) AppleWebKit/537.36 (KHTML, like Gecko) Chrome/134.0.0.0 Safari/537.36 Edg/134.0.0.0" version="26.1.1">
  <diagram name="第 1 页" id="OwnZRJcEa4_7eoBMwrvU">
    <mxGraphModel dx="1410" dy="774" grid="1" gridSize="10" guides="1" tooltips="1" connect="1" arrows="1" fold="1" page="1" pageScale="1" pageWidth="827" pageHeight="1169" math="0" shadow="0">
      <root>
        <mxCell id="0" />
        <mxCell id="1" parent="0" />
        <mxCell id="MCraDFVCQc58dCpTCWK--3" style="edgeStyle=orthogonalEdgeStyle;rounded=0;orthogonalLoop=1;jettySize=auto;html=1;exitX=1;exitY=0.5;exitDx=0;exitDy=0;entryX=0;entryY=0.5;entryDx=0;entryDy=0;" edge="1" parent="1" source="MCraDFVCQc58dCpTCWK--1" target="MCraDFVCQc58dCpTCWK--2">
          <mxGeometry relative="1" as="geometry" />
        </mxCell>
        <mxCell id="MCraDFVCQc58dCpTCWK--1" value="start" style="ellipse;whiteSpace=wrap;html=1;aspect=fixed;" vertex="1" parent="1">
          <mxGeometry x="100" y="320" width="80" height="80" as="geometry" />
        </mxCell>
        <mxCell id="MCraDFVCQc58dCpTCWK--5" style="edgeStyle=orthogonalEdgeStyle;rounded=0;orthogonalLoop=1;jettySize=auto;html=1;exitX=0.5;exitY=0;exitDx=0;exitDy=0;entryX=0;entryY=0.5;entryDx=0;entryDy=0;curved=1;" edge="1" parent="1" source="MCraDFVCQc58dCpTCWK--2" target="MCraDFVCQc58dCpTCWK--4">
          <mxGeometry relative="1" as="geometry" />
        </mxCell>
        <mxCell id="MCraDFVCQc58dCpTCWK--6" value="message from CNN task" style="edgeLabel;html=1;align=center;verticalAlign=middle;resizable=0;points=[];" vertex="1" connectable="0" parent="MCraDFVCQc58dCpTCWK--5">
          <mxGeometry x="0.1882" y="-11" relative="1" as="geometry">
            <mxPoint as="offset" />
          </mxGeometry>
        </mxCell>
        <mxCell id="MCraDFVCQc58dCpTCWK--2" value="idle" style="ellipse;whiteSpace=wrap;html=1;aspect=fixed;" vertex="1" parent="1">
          <mxGeometry x="240" y="320" width="80" height="80" as="geometry" />
        </mxCell>
        <mxCell id="MCraDFVCQc58dCpTCWK--8" style="edgeStyle=orthogonalEdgeStyle;rounded=0;orthogonalLoop=1;jettySize=auto;html=1;exitX=1;exitY=0.5;exitDx=0;exitDy=0;entryX=0.5;entryY=0;entryDx=0;entryDy=0;curved=1;" edge="1" parent="1" source="MCraDFVCQc58dCpTCWK--4" target="MCraDFVCQc58dCpTCWK--7">
          <mxGeometry relative="1" as="geometry">
            <mxPoint x="530" y="260" as="targetPoint" />
          </mxGeometry>
        </mxCell>
        <mxCell id="MCraDFVCQc58dCpTCWK--9" value="send failed" style="edgeLabel;html=1;align=center;verticalAlign=middle;resizable=0;points=[];" vertex="1" connectable="0" parent="MCraDFVCQc58dCpTCWK--8">
          <mxGeometry x="-0.1286" y="-2" relative="1" as="geometry">
            <mxPoint as="offset" />
          </mxGeometry>
        </mxCell>
        <mxCell id="MCraDFVCQc58dCpTCWK--4" value="motion detect" style="ellipse;whiteSpace=wrap;html=1;aspect=fixed;" vertex="1" parent="1">
          <mxGeometry x="390" y="220" width="80" height="80" as="geometry" />
        </mxCell>
        <mxCell id="MCraDFVCQc58dCpTCWK--12" style="edgeStyle=orthogonalEdgeStyle;rounded=0;orthogonalLoop=1;jettySize=auto;html=1;exitX=0.5;exitY=1;exitDx=0;exitDy=0;entryX=0.5;entryY=1;entryDx=0;entryDy=0;curved=1;" edge="1" parent="1" source="MCraDFVCQc58dCpTCWK--7" target="MCraDFVCQc58dCpTCWK--2">
          <mxGeometry relative="1" as="geometry" />
        </mxCell>
        <mxCell id="MCraDFVCQc58dCpTCWK--7" value="failed" style="ellipse;whiteSpace=wrap;html=1;aspect=fixed;" vertex="1" parent="1">
          <mxGeometry x="500" y="330" width="80" height="80" as="geometry" />
        </mxCell>
        <mxCell id="MCraDFVCQc58dCpTCWK--11" style="edgeStyle=orthogonalEdgeStyle;rounded=0;orthogonalLoop=1;jettySize=auto;html=1;exitX=0.5;exitY=1;exitDx=0;exitDy=0;entryX=1.025;entryY=0.588;entryDx=0;entryDy=0;entryPerimeter=0;curved=1;" edge="1" parent="1" source="MCraDFVCQc58dCpTCWK--4" target="MCraDFVCQc58dCpTCWK--2">
          <mxGeometry relative="1" as="geometry" />
        </mxCell>
        <mxCell id="MCraDFVCQc58dCpTCWK--13" value="send success" style="edgeLabel;html=1;align=center;verticalAlign=middle;resizable=0;points=[];" vertex="1" connectable="0" parent="MCraDFVCQc58dCpTCWK--11">
          <mxGeometry x="-0.349" y="-2" relative="1" as="geometry">
            <mxPoint as="offset" />
          </mxGeometry>
        </mxCell>
      </root>
    </mxGraphModel>
  </diagram>
</mxfile>
